{
  "accessors": [
    {
      "bufferView": 1,
      "componentType": 5126,
      "count": 4279,
      "max": [
        0.6388599872589111,
        0.8421599864959717,
        1.6230800151824951
      ],
      "min": [
        -0.5942999720573425,
        -0.8319500088691711,
        -0.00675999978557229
      ],
      "type": "VEC3"
    },
    {
      "bufferView": 1,
      "byteOffset": 51348,
      "componentType": 5126,
      "count": 4279,
      "max": [
        0.999921441078186,
        0.999992847442627,
        1.0
      ],
      "min": [
        -0.9999434351921082,
        -0.9999147653579712,
        -1.0
      ],
      "type": "VEC3"
    },
    {
      "bufferView": 0,
      "componentType": 5125,
      "count": 6387,
      "type": "SCALAR"
    },
    {
      "bufferView": 1,
      "byteOffset": 102696,
      "componentType": 5126,
      "count": 1378,
      "max": [
        0.5336899757385254,
        0.8060700297355652,
        1.58132004737854
      ],
      "min": [
        -0.5398899912834167,
        -0.8018900156021118,
        -0.00675999978557229
      ],
      "type": "VEC3"
    },
    {
      "bufferView": 1,
      "byteOffset": 119232,
      "componentType": 5126,
      "count": 1378,
      "max": [
        0.9980337023735046,
        0.9990441799163818,
        0.9814398884773254
      ],
      "min": [
        -0.9990503787994385,
        -0.9987611770629883,
        -1.0
      ],
      "type": "VEC3"
    },
    {
      "bufferView": 0,
      "byteOffset": 25548,
      "componentType": 5125,
      "count": 2070,
      "type": "SCALAR"
    },
    {
      "bufferView": 1,
      "byteOffset": 135768,
      "componentType": 5126,
      "count": 1137,
      "max": [
        0.5345100164413452,
        0.8088899850845337,
        1.58132004737854
      ],
      "min": [
        -0.5496399998664856,
        -0.8030800223350525,
        -0.007459999993443489
      ],
      "type": "VEC3"
    },
    {
      "bufferView": 1,
      "byteOffset": 149412,
      "componentType": 5126,
      "count": 1137,
      "max": [
        0.9997848868370056,
        0.9943907856941223,
        0.9999249577522278
      ],
      "min": [
        -0.9984114170074463,
        -0.9921481013298035,
        -1.0
      ],
      "type": "VEC3"
    },
    {
      "bufferView": 0,
      "byteOffset": 33828,
      "componentType": 5125,
      "count": 3012,
      "type": "SCALAR"
    },
    {
      "bufferView": 1,
      "byteOffset": 163056,
      "componentType": 5126,
      "count": 108,
      "max": [
        0.6388599872589111,
        0.05609999969601631,
        0.993369996547699
      ],
      "min": [
        0.5535299777984619,
        -0.05480999872088432,
        0.8281099796295166
      ],
      "type": "VEC3"
    },
    {
      "bufferView": 1,
      "byteOffset": 164352,
      "componentType": 5126,
      "count": 108,
      "max": [
        0.9997053742408752,
        0.9939466714859009,
        0.9995454549789429
      ],
      "min": [
        0.024899886921048164,
        -0.9939459562301636,
        -0.9884944558143616
      ],
      "type": "VEC3"
    },
    {
      "bufferView": 0,
      "byteOffset": 45876,
      "componentType": 5125,
      "count": 144,
      "type": "SCALAR"
    }
  ],
  "asset": {
    "extras": {
      "author": "TheCaitasaurus (https://sketchfab.com/thecaitasaurus)",
      "license": "CC-BY-4.0 (http://creativecommons.org/licenses/by/4.0/)",
      "source": "https://sketchfab.com/3d-models/printable-treasure-chest-08e75b1f6ce5437c8af5173f541c64a2",
      "title": "Printable Treasure Chest"
    },
    "generator": "Sketchfab-12.66.0",
    "version": "2.0"
  },
  "bufferViews": [
    {
      "buffer": 0,
      "byteLength": 46452,
      "name": "floatBufferViews",
      "target": 34963
    },
    {
      "buffer": 0,
      "byteLength": 165648,
      "byteOffset": 46452,
      "byteStride": 12,
      "name": "floatBufferViews",
      "target": 34962
    }
  ],
  "buffers": [
    {
      "byteLength": 212100,
      "uri": "scene.bin"
    }
  ],
  "materials": [
    {
      "doubleSided": true,
      "name": "Gold",
      "pbrMetallicRoughness": {
        "baseColorFactor": [
          0.5382244587,
          0.4617837667,
          0.1483067274,
          1.0
        ],
        "metallicFactor": 0.0,
        "roughnessFactor": 0.6
      }
    },
    {
      "doubleSided": true,
      "name": "Wood",
      "pbrMetallicRoughness": {
        "baseColorFactor": [
          0.1679484844,
          0.0910310894,
          0.029776521,
          1.0
        ],
        "metallicFactor": 0.0,
        "roughnessFactor": 0.6
      }
    },
    {
      "doubleSided": true,
      "name": "Cracks",
      "pbrMetallicRoughness": {
        "baseColorFactor": [
          0.087139897,
          0.0502752699,
          0.0210827552,
          1.0
        ],
        "metallicFactor": 0.0,
        "roughnessFactor": 0.6
      }
    },
    {
      "doubleSided": true,
      "name": "Keyhole",
      "pbrMetallicRoughness": {
        "baseColorFactor": [
          0.0310633536,
          0.026562389,
          0.0272450075,
          1.0
        ],
        "metallicFactor": 0.0,
        "roughnessFactor": 0.6
      }
    }
  ],
  "meshes": [
    {
      "name": "Cube_0",
      "primitives": [
        {
          "attributes": {
            "NORMAL": 1,
            "POSITION": 0
          },
          "indices": 2,
          "material": 0,
          "mode": 4
        }
      ]
    },
    {
      "name": "Cube_1",
      "primitives": [
        {
          "attributes": {
            "NORMAL": 4,
            "POSITION": 3
          },
          "indices": 5,
          "material": 1,
          "mode": 4
        }
      ]
    },
    {
      "name": "Cube_2",
      "primitives": [
        {
          "attributes": {
            "NORMAL": 7,
            "POSITION": 6
          },
          "indices": 8,
          "material": 2,
          "mode": 4
        }
      ]
    },
    {
      "name": "Cube_3",
      "primitives": [
        {
          "attributes": {
            "NORMAL": 10,
            "POSITION": 9
          },
          "indices": 11,
          "material": 3,
          "mode": 4
        }
      ]
    }
  ],
  "nodes": [
    {
      "children": [
        1
      ],
      "matrix": [
        1.0,
        0.0,
        0.0,
        0.0,
        0.0,
        2.220446049250313e-16,
        -1.0,
        0.0,
        0.0,
        1.0,
        2.220446049250313e-16,
        0.0,
        0.0,
        0.0,
        0.0,
        1.0
      ],
      "name": "Sketchfab_model"
    },
    {
      "children": [
        2,
        4
      ],
      "name": "Root"
    },
    {
      "children": [
        3
      ],
      "matrix": [
        -0.29086000000000006,
        0.9551700000000001,
        -0.05519000000000001,
        0.0,
        -0.7711,
        -0.19988000000000003,
        0.6045200000000001,
        0.0,
        0.5663900000000001,
        0.21839000000000003,
        0.7946700000000001,
        0.0,
        4.076250000000001,
        1.00545,
        5.903860000000001,
        1.0
      ],
      "name": "Lamp"
    },
    {
      "name": "Lamp"
    },
    {
      "children": [
        5,
        6,
        7,
        8
      ],
      "name": "Cube"
    },
    {
      "mesh": 0,
      "name": "Cube_0"
    },
    {
      "mesh": 1,
      "name": "Cube_1"
    },
    {
      "mesh": 2,
      "name": "Cube_2"
    },
    {
      "mesh": 3,
      "name": "Cube_3"
    }
  ],
  "scene": 0,
  "scenes": [
    {
      "name": "Sketchfab_Scene",
      "nodes": [
        0
      ]
    }
  ]
}
